<!-- Yoin icon set · Luminous edition · generated by docs/icons/build.py — edit the sources, not this file -->
<svg xmlns="http://www.w3.org/2000/svg" viewBox="0 0 24 24" width="24" height="24" fill="none" stroke="currentColor" stroke-width="1.5" stroke-linecap="round" stroke-linejoin="round"><title>home_filled</title><path d="M14.25 20 L17.4 20 C18.836 20 20 18.836 20 17.4 L20 11.009 C20 10.497 19.769 10.013 19.372 9.69 L13.45 4.878 C12.605 4.192 11.395 4.192 10.55 4.878 L4.628 9.69 C4.231 10.013 4 10.497 4 11.009 L4 17.4 C4 18.836 5.164 20 6.6 20 L9.75 20 L9.75 16.4 C9.75 15.157 10.757 14.15 12 14.15 C13.243 14.15 14.25 15.157 14.25 16.4 L14.25 20 Z" fill="currentColor"/></svg>
