<!-- Yoin icon set · Luminous edition · generated by docs/icons/build.py — edit the sources, not this file -->
<svg xmlns="http://www.w3.org/2000/svg" viewBox="0 0 24 24" width="24" height="24" fill="none" stroke="currentColor" stroke-width="1.5" stroke-linecap="round" stroke-linejoin="round"><title>storage</title><path d="M7.05 4.25 L16.95 4.25 C18.105 4.25 18.683 4.25 19.124 4.475 C19.512 4.673 19.827 4.988 20.025 5.376 C20.25 5.817 20.25 6.395 20.25 7.55 L20.25 7.55 C20.25 8.705 20.25 9.283 20.025 9.724 C19.827 10.112 19.512 10.427 19.124 10.625 C18.683 10.85 18.105 10.85 16.95 10.85 L7.05 10.85 C5.895 10.85 5.317 10.85 4.876 10.625 C4.488 10.427 4.173 10.112 3.975 9.724 C3.75 9.283 3.75 8.705 3.75 7.55 L3.75 7.55 C3.75 6.395 3.75 5.817 3.975 5.376 C4.173 4.988 4.488 4.673 4.876 4.475 C5.317 4.25 5.895 4.25 7.05 4.25 Z"/><path d="M7.05 13.15 L16.95 13.15 C18.105 13.15 18.683 13.15 19.124 13.375 C19.512 13.573 19.827 13.888 20.025 14.276 C20.25 14.717 20.25 15.295 20.25 16.45 L20.25 16.45 C20.25 17.605 20.25 18.183 20.025 18.624 C19.827 19.012 19.512 19.327 19.124 19.525 C18.683 19.75 18.105 19.75 16.95 19.75 L7.05 19.75 C5.895 19.75 5.317 19.75 4.876 19.525 C4.488 19.327 4.173 19.012 3.975 18.624 C3.75 18.183 3.75 17.605 3.75 16.45 L3.75 16.45 C3.75 15.295 3.75 14.717 3.975 14.276 C4.173 13.888 4.488 13.573 4.876 13.375 C5.317 13.15 5.895 13.15 7.05 13.15 Z"/><path d="M7.35 6.55 C7.902 6.55 8.35 6.998 8.35 7.55 C8.35 8.102 7.902 8.55 7.35 8.55 C6.798 8.55 6.35 8.102 6.35 7.55 C6.35 6.998 6.798 6.55 7.35 6.55 Z" fill="currentColor" stroke="none"/><path d="M7.35 15.45 C7.902 15.45 8.35 15.898 8.35 16.45 C8.35 17.002 7.902 17.45 7.35 17.45 C6.798 17.45 6.35 17.002 6.35 16.45 C6.35 15.898 6.798 15.45 7.35 15.45 Z" fill="currentColor" stroke="none"/></svg>
