<!-- Yoin icon set · Luminous edition · generated by docs/icons/build.py — edit the sources, not this file -->
<svg xmlns="http://www.w3.org/2000/svg" viewBox="0 0 24 24" width="24" height="24" fill="none" stroke="currentColor" stroke-width="1.5" stroke-linecap="round" stroke-linejoin="round"><title>launch</title><path d="M19.5 13.6 C19.5 15.659 19.499 16.691 19.097 17.48 C18.742 18.176 18.176 18.742 17.48 19.097 C16.688 19.5 15.652 19.5 13.58 19.5 L10.42 19.5 C8.348 19.5 7.312 19.5 6.52 19.097 C5.824 18.742 5.258 18.176 4.903 17.48 C4.5 16.688 4.5 15.652 4.5 13.58 L4.5 10.42 C4.5 8.348 4.5 7.312 4.903 6.52 C5.258 5.824 5.824 5.258 6.52 4.903 C7.309 4.501 8.341 4.5 10.4 4.5"/><path d="M12.1 11.9 L19.4 4.6"/><path d="M13.9 4.6 L19.4 4.6 L19.4 10.1"/></svg>
