<!-- Yoin icon set · Luminous edition · generated by docs/icons/build.py — edit the sources, not this file -->
<svg xmlns="http://www.w3.org/2000/svg" viewBox="0 0 24 24" width="24" height="24" fill="none" stroke="currentColor" stroke-width="1.5" stroke-linecap="round" stroke-linejoin="round"><title>cast_connected</title><path id="screen" d="M3.75 9.4 C3.753 7.916 3.782 7.119 4.099 6.497 C4.406 5.895 4.895 5.406 5.497 5.099 C6.182 4.75 7.078 4.75 8.87 4.75 L8.87 4.75 L15.13 4.75 C16.922 4.75 17.818 4.75 18.503 5.099 C19.105 5.406 19.594 5.895 19.901 6.497 C20.25 7.182 20.25 8.078 20.25 9.87 L20.25 14.13 C20.25 15.922 20.25 16.818 19.901 17.503 C19.594 18.105 19.105 18.594 18.503 18.901 C17.818 19.25 16.922 19.25 15.13 19.25 L13.6 19.25"/><path id="wave-0" d="M4.3 17.6 C4.908 17.6 5.4 18.092 5.4 18.7 C5.4 19.308 4.908 19.8 4.3 19.8 C3.692 19.8 3.2 19.308 3.2 18.7 C3.2 18.092 3.692 17.6 4.3 17.6 Z" fill="currentColor" stroke="none"/><path id="wave-1" d="M3.75 14.9 C6.152 14.9 8.1 16.848 8.1 19.25"/><path id="wave-2" d="M3.75 10.95 C8.334 10.95 12.05 14.666 12.05 19.25"/><path id="panel" d="M6.35 8.922 L6.35 8.6 C6.35 7.91 6.91 7.35 7.6 7.35 L16.4 7.35 C17.09 7.35 17.65 7.91 17.65 8.6 L17.65 15.4 C17.65 16.09 17.09 16.65 16.4 16.65 L14.078 16.65 C13.121 12.848 10.152 9.879 6.35 8.922 Z" fill="currentColor" stroke="none"/></svg>
